<svg xmlns="http://www.w3.org/2000/svg" viewBox="0 0 64 64" role="img" aria-labelledby="title desc">
  <title id="title">AIS</title>
  <desc id="desc">AIS 应用图标</desc>
  <defs>
    <linearGradient id="bg" x1="8" y1="4" x2="57" y2="61" gradientUnits="userSpaceOnUse">
      <stop stop-color="#586BF7"/>
      <stop offset="0.52" stop-color="#7562F1"/>
      <stop offset="1" stop-color="#A255E9"/>
    </linearGradient>
    <linearGradient id="panel" x1="15" y1="17" x2="49" y2="50" gradientUnits="userSpaceOnUse">
      <stop stop-color="#FFFFFF" stop-opacity=".98"/>
      <stop offset="1" stop-color="#E7E9FF" stop-opacity=".9"/>
    </linearGradient>
    <linearGradient id="mountain" x1="17" y1="46" x2="48" y2="29" gradientUnits="userSpaceOnUse">
      <stop stop-color="#6577F8"/>
      <stop offset="1" stop-color="#A45BF1"/>
    </linearGradient>
    <filter id="shadow" x="-20%" y="-20%" width="140%" height="150%">
      <feDropShadow dx="0" dy="2" stdDeviation="2" flood-color="#302A8C" flood-opacity=".28"/>
    </filter>
  </defs>

  <rect x="2" y="2" width="60" height="60" rx="17" fill="url(#bg)"/>
  <circle cx="12" cy="10" r="17" fill="#FFFFFF" opacity=".1"/>
  <circle cx="52" cy="56" r="19" fill="#2D238F" opacity=".1"/>

  <g filter="url(#shadow)">
    <rect x="12" y="16" width="40" height="33" rx="8" fill="url(#panel)"/>
    <circle cx="23" cy="26" r="3.5" fill="#F5B83D"/>
    <path d="M16.5 45 27.2 33.8a2.5 2.5 0 0 1 3.7-.05l5.2 5.45 3.85-4.05a2.5 2.5 0 0 1 3.65.07L49 41.05V45H16.5Z" fill="url(#mountain)"/>
    <path d="m16.5 45 10.7-11.2a2.5 2.5 0 0 1 3.7-.05l5.2 5.45 3.85-4.05a2.5 2.5 0 0 1 3.65.07L49 41.05" fill="none" stroke="#FFFFFF" stroke-opacity=".72" stroke-width="1.4" stroke-linecap="round" stroke-linejoin="round"/>
  </g>

  <path d="m48.8 10.7 1.45 4.05 4.05 1.45-4.05 1.45-1.45 4.05-1.45-4.05-4.05-1.45 4.05-1.45 1.45-4.05Z" fill="#FFFFFF"/>
  <path d="m40.2 7.8.7 1.95 1.95.7-1.95.7-.7 1.95-.7-1.95-1.95-.7 1.95-.7.7-1.95Z" fill="#FFFFFF" opacity=".76"/>
</svg>
